<svg width="32" height="32" viewBox="0 0 32 32" fill="none" xmlns="http://www.w3.org/2000/svg">
<path d="M27.0849 5.59611C25.0142 4.62474 22.8088 3.909 20.4855 3.5C20.1993 4.01125 19.8626 4.70995 19.6438 5.27232C17.1858 4.89741 14.7448 4.89741 12.3374 5.27232C12.1017 4.70995 11.765 4.01125 11.4788 3.5C9.15553 3.909 6.95013 4.62474 4.87941 5.59611C0.704311 11.9696 -0.42364 18.1899 0.131918 24.3078C2.90971 26.4039 5.58649 27.665 8.2296 28.5C8.88616 27.5968 9.45856 26.6254 9.96361 25.62C9.00401 25.2621 8.09491 24.802 7.23633 24.2737C7.47202 24.1033 7.69087 23.9158 7.90973 23.7454C13.1791 26.2335 18.8862 26.2335 24.0882 23.7454C24.3071 23.9329 24.5259 24.1033 24.7616 24.2737C23.903 24.802 22.9771 25.2451 22.0344 25.62C22.5394 26.6254 23.1118 27.5968 23.7684 28.5C26.4115 27.665 29.1051 26.4039 31.866 24.3078C32.5226 17.2015 30.7381 11.0494 27.1185 5.59611H27.0849ZM10.6707 20.5586C9.08818 20.5586 7.79188 19.076 7.79188 17.2526C7.79188 15.4291 9.05451 13.9465 10.6707 13.9465C12.2869 13.9465 13.5663 15.4291 13.5495 17.2526C13.5495 19.059 12.2869 20.5586 10.6707 20.5586ZM21.2936 20.5586C19.7111 20.5586 18.4148 19.076 18.4148 17.2526C18.4148 15.4291 19.6774 13.9465 21.2936 13.9465C22.9098 13.9465 24.1892 15.4291 24.1724 17.2526C24.1724 19.059 22.9098 20.5586 21.2936 20.5586Z" fill="#F8F8F8"/>
</svg>
