<svg width="32" height="32" viewBox="0 0 32 32" fill="none" xmlns="http://www.w3.org/2000/svg">
<g clip-path="url(#clip0_39_638)">
<path fill-rule="evenodd" clip-rule="evenodd" d="M-7.62939e-06 6.4C-7.62939e-06 2.86538 2.86537 0 6.39999 0H25.6C29.1346 0 32 2.86538 32 6.4V25.6C32 29.1346 29.1346 32 25.6 32H6.39999C2.86537 32 -7.62939e-06 29.1346 -7.62939e-06 25.6V6.4ZM6.39999 3.2C4.63268 3.2 3.19999 4.63269 3.19999 6.4V25.6C3.19999 27.3674 4.63268 28.8 6.39999 28.8H25.6C27.3674 28.8 28.8 27.3674 28.8 25.6V6.4C28.8 4.63269 27.3674 3.2 25.6 3.2H6.39999ZM16 11.2C13.349 11.2 11.2 13.349 11.2 16C11.2 18.651 13.349 20.8 16 20.8C18.651 20.8 20.8 18.651 20.8 16C20.8 13.349 18.651 11.2 16 11.2ZM7.99999 16C7.99999 11.5817 11.5817 8 16 8C20.4182 8 24 11.5817 24 16C24 20.4182 20.4182 24 16 24C11.5817 24 7.99999 20.4182 7.99999 16ZM24.8 9.6C26.1254 9.6 27.2 8.52549 27.2 7.2C27.2 5.87451 26.1254 4.8 24.8 4.8C23.4746 4.8 22.4 5.87451 22.4 7.2C22.4 8.52549 23.4746 9.6 24.8 9.6Z" fill="#F8F8F8"/>
</g>
<defs>
<clipPath id="clip0_39_638">
<rect width="32" height="32" fill="white"/>
</clipPath>
</defs>
</svg>
