<svg width="32" height="32" viewBox="0 0 32 32" fill="none" xmlns="http://www.w3.org/2000/svg">
<g clip-path="url(#clip0_39_653)">
<path d="M7.44877 10.2947H1.02472C0.73961 10.2947 0.508591 10.5258 0.508591 10.8108V31.4486C0.508591 31.7337 0.73961 31.9647 1.02472 31.9647H7.44877C7.73388 31.9647 7.9649 31.7337 7.9649 31.4486V10.8108C7.9649 10.5258 7.73388 10.2947 7.44877 10.2947Z" fill="#F8F8F8"/>
<path d="M4.23907 0.0352173C1.90163 0.0352173 0 1.93478 0 4.26964C0 6.60554 1.90163 8.50582 4.23907 8.50582C6.57466 8.50582 8.47473 6.60544 8.47473 4.26964C8.47484 1.93478 6.57466 0.0352173 4.23907 0.0352173Z" fill="#F8F8F8"/>
<path d="M23.7888 9.7818C21.2087 9.7818 19.3014 10.891 18.1445 12.1512V10.8109C18.1445 10.5259 17.9135 10.2947 17.6284 10.2947H11.4762C11.1911 10.2947 10.9601 10.5259 10.9601 10.8109V31.4486C10.9601 31.7337 11.1911 31.9647 11.4762 31.9647H17.8862C18.1714 31.9647 18.4024 31.7337 18.4024 31.4486V21.2377C18.4024 17.7969 19.337 16.4564 21.7355 16.4564C24.3478 16.4564 24.5554 18.6053 24.5554 21.4147V31.4487C24.5554 31.7338 24.7864 31.9648 25.0715 31.9648H31.4839C31.769 31.9648 32 31.7338 32 31.4487V20.1285C32 15.0121 31.0244 9.7818 23.7888 9.7818Z" fill="#F8F8F8"/>
</g>
<defs>
<clipPath id="clip0_39_653">
<rect width="32" height="32" fill="white"/>
</clipPath>
</defs>
</svg>
